<svg width="104" height="106" viewBox="0 0 104 106" fill="none" xmlns="http://www.w3.org/2000/svg">
<path d="M88.0749 99.0373L77.7833 88.6378C74.1722 91.265 70.1999 93.3084 65.8666 94.768C61.5333 96.2276 56.9111 96.9574 51.9999 96.9574C45.8611 96.9574 40.1555 95.8445 34.8833 93.6186C29.6111 91.3927 25.0249 88.3093 21.1249 84.3685C17.2249 80.4276 14.1736 75.7934 11.9708 70.4659C9.768 65.1384 8.66661 59.3731 8.66661 53.1698C8.66661 48.2072 9.38883 43.5366 10.8333 39.1578C12.2777 34.7791 14.2999 30.7652 16.8999 27.1162L6.60828 16.7167L11.2666 12.0095L92.7333 94.3301L88.0749 99.0373ZM51.9999 90.3893C55.9722 90.3893 59.7277 89.8237 63.2666 88.6925C66.8055 87.5613 70.0916 85.974 73.1249 83.9306L21.5583 31.8234C19.5361 34.8885 17.9652 38.2091 16.8458 41.7851C15.7263 45.361 15.1666 49.156 15.1666 53.1698C15.1666 63.7518 18.6874 72.6006 25.7291 79.716C32.7708 86.8315 41.5277 90.3893 51.9999 90.3893ZM87.0999 79.2234L82.4416 74.5163C84.4638 71.4511 86.0347 68.1306 87.1541 64.5546C88.2735 60.9786 88.8333 57.1837 88.8333 53.1698C88.8333 42.5878 85.3124 33.7391 78.2708 26.6236C71.2291 19.5081 62.4722 15.9504 51.9999 15.9504C48.0277 15.9504 44.2722 16.516 40.7333 17.6472C37.1944 18.7783 33.9083 20.3656 30.8749 22.4091L26.2166 17.7019C29.8277 15.0746 33.7999 13.0312 38.1333 11.5716C42.4666 10.1121 47.0888 9.38226 51.9999 9.38226C58.0666 9.38226 63.7361 10.5134 69.0083 12.7758C74.2805 15.0382 78.8666 18.1398 82.7666 22.0807C86.6666 26.0215 89.7361 30.6557 91.9749 35.9832C94.2138 41.3107 95.3333 47.0396 95.3333 53.1698C95.3333 58.1324 94.611 62.8031 93.1666 67.1818C91.7222 71.5606 89.6999 75.5745 87.0999 79.2234Z" fill="white"/>
</svg>
