<svg width="104" height="106" viewBox="0 0 104 106" fill="none" xmlns="http://www.w3.org/2000/svg">
<path d="M67.8166 47.475C69.4777 47.475 70.868 46.9094 71.9875 45.7782C73.1069 44.647 73.6666 43.2422 73.6666 41.5636C73.6666 39.8851 73.1069 38.4803 71.9875 37.3491C70.868 36.2179 69.4777 35.6523 67.8166 35.6523C66.1555 35.6523 64.7652 36.2179 63.6458 37.3491C62.5264 38.4803 61.9666 39.8851 61.9666 41.5636C61.9666 43.2422 62.5264 44.647 63.6458 45.7782C64.7652 46.9094 66.1555 47.475 67.8166 47.475ZM36.1833 47.475C37.8444 47.475 39.2347 46.9094 40.3541 45.7782C41.4736 44.647 42.0333 43.2422 42.0333 41.5636C42.0333 39.8851 41.4736 38.4803 40.3541 37.3491C39.2347 36.2179 37.8444 35.6523 36.1833 35.6523C34.5222 35.6523 33.1319 36.2179 32.0125 37.3491C30.893 38.4803 30.3333 39.8851 30.3333 41.5636C30.3333 43.2422 30.893 44.647 32.0125 45.7782C33.1319 46.9094 34.5222 47.475 36.1833 47.475ZM52 77.2505C56.7666 77.2505 61.1541 75.9551 65.1625 73.3644C69.1708 70.7736 72.0777 67.2523 73.8833 62.8006H68.25C66.5889 65.7198 64.3139 67.9639 61.425 69.5329C58.5361 71.102 55.4305 71.8865 52.1083 71.8865C48.7138 71.8865 45.5541 71.1203 42.6291 69.5877C39.7041 68.0551 37.4472 65.7928 35.8583 62.8006H30.1166C31.9944 67.2523 34.9194 70.7736 38.8916 73.3644C42.8638 75.9551 47.2333 77.2505 52 77.2505ZM52 97.0644C46.0777 97.0644 40.4805 95.915 35.2083 93.6161C29.9361 91.3173 25.3319 88.1792 21.3958 84.2018C17.4597 80.2244 14.3541 75.572 12.0791 70.2445C9.80413 64.917 8.66663 59.2246 8.66663 53.1674C8.66663 47.1831 9.80413 41.5272 12.0791 36.1997C14.3541 30.8722 17.4597 26.238 21.3958 22.2971C25.3319 18.3562 29.9361 15.2364 35.2083 12.9375C40.4805 10.6387 46.1138 9.48926 52.1083 9.48926C58.0305 9.48926 63.6277 10.6387 68.9 12.9375C74.1722 15.2364 78.7583 18.3562 82.6583 22.2971C86.5583 26.238 89.6458 30.8722 91.9208 36.1997C94.1958 41.5272 95.3333 47.2195 95.3333 53.2768C95.3333 59.2611 94.1958 64.917 91.9208 70.2445C89.6458 75.572 86.5583 80.2244 82.6583 84.2018C78.7583 88.1792 74.1722 91.3173 68.9 93.6161C63.6277 95.915 57.9944 97.0644 52 97.0644ZM52 90.4962C62.2555 90.4962 70.9583 86.8655 78.1083 79.6041C85.2583 72.3427 88.8333 63.5669 88.8333 53.2768C88.8333 42.9138 85.2583 34.1198 78.1083 26.8948C70.9583 19.6699 62.2555 16.0574 52 16.0574C41.8166 16.0574 33.1319 19.6699 25.9458 26.8948C18.7597 34.1198 15.1666 42.9138 15.1666 53.2768C15.1666 63.5669 18.7597 72.3427 25.9458 79.6041C33.1319 86.8655 41.8166 90.4962 52 90.4962Z" fill="white"/>
</svg>
