<svg width="20" height="20" viewBox="0 0 20 20" fill="none" xmlns="http://www.w3.org/2000/svg">
<path d="M18.75 20C16.4907 20 14.2454 19.4444 12.0139 18.3333C9.78241 17.2222 7.77778 15.7778 6 14C4.22222 12.2222 2.77778 10.2176 1.66667 7.98611C0.555556 5.75463 0 3.50926 0 1.25C0 0.898148 0.12037 0.601852 0.361111 0.361111C0.601852 0.12037 0.898148 0 1.25 0H5.13889C5.39815 0 5.625 0.0879629 5.81944 0.263889C6.01389 0.439815 6.13889 0.675926 6.19444 0.972222L6.94444 4.47222C6.98148 4.73148 6.97685 4.96759 6.93056 5.18056C6.88426 5.39352 6.78704 5.57407 6.63889 5.72222L3.86111 8.52778C4.89815 10.25 6.06019 11.75 7.34722 13.0278C8.63426 14.3056 10.0926 15.3889 11.7222 16.2778L14.3611 13.5556C14.5463 13.3519 14.7593 13.2083 15 13.125C15.2407 13.0417 15.4815 13.0278 15.7222 13.0833L19.0278 13.8056C19.3056 13.8611 19.537 14 19.7222 14.2222C19.9074 14.4444 20 14.7037 20 15V18.75C20 19.1019 19.8796 19.3981 19.6389 19.6389C19.3981 19.8796 19.1019 20 18.75 20ZM3.02778 7L5.27778 4.72222L4.63889 1.66667H1.66667C1.66667 2.38889 1.77778 3.18056 2 4.04167C2.22222 4.90278 2.56481 5.88889 3.02778 7ZM18.3333 18.3333V15.3611L15.4722 14.7778L13.2778 17.0833C14.037 17.4352 14.8611 17.7222 15.75 17.9444C16.6389 18.1667 17.5 18.2963 18.3333 18.3333Z" fill="#17B111"/>
</svg>
