<svg width="104" height="106" viewBox="0 0 104 106" fill="none" xmlns="http://www.w3.org/2000/svg">
<path d="M35.75 73.6344L52 57.2141L68.25 73.6344L72.7999 69.0367L56.55 52.6164L72.7999 36.196L68.25 31.5983L52 48.0187L35.75 31.5983L31.2 36.196L47.45 52.6164L31.2 69.0367L35.75 73.6344ZM52 96.4039C45.8611 96.4039 40.1555 95.291 34.8833 93.0651C29.6111 90.8393 25.025 87.7559 21.125 83.815C17.225 79.8741 14.1736 75.2399 11.9708 69.9124C9.76802 64.585 8.66663 58.8196 8.66663 52.6164C8.66663 46.4861 9.76802 40.7572 11.9708 35.4297C14.1736 30.1023 17.225 25.4681 21.125 21.5272C25.025 17.5863 29.6111 14.4847 34.8833 12.2223C40.1555 9.95998 45.8611 8.8288 52 8.8288C58.0666 8.8288 63.7361 9.95998 69.0083 12.2223C74.2805 14.4847 78.8666 17.5863 82.7666 21.5272C86.6666 25.4681 89.7361 30.1023 91.975 35.4297C94.2138 40.7572 95.3333 46.4861 95.3333 52.6164C95.3333 58.8196 94.2138 64.585 91.975 69.9124C89.7361 75.2399 86.6666 79.8741 82.7666 83.815C78.8666 87.7559 74.2805 90.8393 69.0083 93.0651C63.7361 95.291 58.0666 96.4039 52 96.4039ZM52 89.8358C62.1111 89.8358 70.7777 86.1868 78 78.8889C85.2222 71.591 88.8333 62.8335 88.8333 52.6164C88.8333 42.3993 85.2222 33.6418 78 26.3438C70.7777 19.0459 62.1111 15.3969 52 15.3969C41.8888 15.3969 33.2222 19.0459 26 26.3438C18.7777 33.6418 15.1666 42.3993 15.1666 52.6164C15.1666 62.8335 18.7777 71.591 26 78.8889C33.2222 86.1868 41.8888 89.8358 52 89.8358Z" fill="white"/>
</svg>
