<svg width="104" height="106" viewBox="0 0 104 106" fill="none" xmlns="http://www.w3.org/2000/svg">
<g clip-path="url(#clip0_84_42)">
<path d="M52 66.9518L70.7416 48.0137L66.0833 43.416L52 57.6469L37.9166 43.416L33.2583 48.0137L52 66.9518ZM52 96.6178C45.8611 96.6178 40.1555 95.5049 34.8833 93.279C29.6111 91.0532 25.025 87.9698 21.125 84.0289C17.225 80.088 14.1736 75.4539 11.9708 70.1264C9.76802 64.7989 8.66663 59.0335 8.66663 52.8303C8.66663 46.7 9.76802 40.9712 11.9708 35.6437C14.1736 30.3162 17.225 25.682 21.125 21.7411C25.025 17.8002 29.6111 14.6986 34.8833 12.4363C40.1555 10.1739 45.8611 9.04272 52 9.04272C58.0666 9.04272 63.7361 10.1739 69.0083 12.4363C74.2805 14.6986 78.8666 17.8002 82.7666 21.7411C86.6666 25.682 89.7361 30.3162 91.975 35.6437C94.2139 40.9712 95.3333 46.7 95.3333 52.8303C95.3333 59.0335 94.2139 64.7989 91.975 70.1264C89.7361 75.4539 86.6666 80.088 82.7666 84.0289C78.8666 87.9698 74.2805 91.0532 69.0083 93.279C63.7361 95.5049 58.0666 96.6178 52 96.6178ZM52 90.0497C62.4722 90.0497 71.2291 86.492 78.2708 79.3765C85.3125 72.261 88.8333 63.4123 88.8333 52.8303C88.8333 42.2483 85.3125 33.3996 78.2708 26.2841C71.2291 19.1686 62.4722 15.6109 52 15.6109C41.5277 15.6109 32.7708 19.1686 25.7291 26.2841C18.6875 33.3996 15.1666 42.2483 15.1666 52.8303C15.1666 63.4123 18.6875 72.261 25.7291 79.3765C32.7708 86.492 41.5277 90.0497 52 90.0497Z" fill="white"/>
</g>
<defs>
<clipPath id="clip0_84_42">
<rect width="104" height="105.09" fill="white" transform="translate(0 0.285156)"/>
</clipPath>
</defs>
</svg>
