<svg width="37" height="37" viewBox="0 0 37 37" fill="none" xmlns="http://www.w3.org/2000/svg">
<path d="M5.39575 30.8332C4.77909 30.8332 4.2395 30.6019 3.777 30.1394C3.3145 29.6769 3.08325 29.1373 3.08325 28.5207V8.479C3.08325 7.86234 3.3145 7.32275 3.777 6.86025C4.2395 6.39775 4.77909 6.1665 5.39575 6.1665H31.6041C32.2208 6.1665 32.7603 6.39775 33.2228 6.86025C33.6853 7.32275 33.9166 7.86234 33.9166 8.479V28.5207C33.9166 29.1373 33.6853 29.6769 33.2228 30.1394C32.7603 30.6019 32.2208 30.8332 31.6041 30.8332H5.39575ZM18.4999 19.1936L5.39575 10.5988V28.5207H31.6041V10.5988L18.4999 19.1936ZM18.4999 16.8811L31.4499 8.479H5.58846L18.4999 16.8811ZM5.39575 10.5988V8.479V10.5988V28.5207V10.5988Z" fill="#17B111"/>
</svg>
