<svg width="37" height="37" viewBox="0 0 37 37" fill="none" xmlns="http://www.w3.org/2000/svg">
<path d="M24.1655 25.9387L25.8999 24.2043L19.7718 18.0377V10.2908H17.4593V18.9627L24.1655 25.9387ZM18.4999 33.9168C16.393 33.9168 14.4017 33.5121 12.526 32.7028C10.6503 31.8934 9.01225 30.7885 7.6119 29.3882C6.21155 27.9878 5.10669 26.3498 4.29731 24.4741C3.48794 22.5984 3.08325 20.6071 3.08325 18.5002C3.08325 16.3932 3.48794 14.4019 4.29731 12.5262C5.10669 10.6505 6.21155 9.01249 7.6119 7.61214C9.01225 6.21179 10.6503 5.10693 12.526 4.29756C14.4017 3.48818 16.393 3.0835 18.4999 3.0835C20.6069 3.0835 22.5982 3.48818 24.4739 4.29756C26.3496 5.10693 27.9876 6.21179 29.3879 7.61214C30.7883 9.01249 31.8931 10.6505 32.7025 12.5262C33.5119 14.4019 33.9166 16.3932 33.9166 18.5002C33.9166 20.6071 33.5119 22.5984 32.7025 24.4741C31.8931 26.3498 30.7883 27.9878 29.3879 29.3882C27.9876 30.7885 26.3496 31.8934 24.4739 32.7028C22.5982 33.5121 20.6069 33.9168 18.4999 33.9168ZM18.4999 31.6043C22.0971 31.6043 25.1805 30.3196 27.7499 27.7502C30.3194 25.1807 31.6041 22.0974 31.6041 18.5002C31.6041 14.9029 30.3194 11.8196 27.7499 9.25016C25.1805 6.68072 22.0971 5.396 18.4999 5.396C14.9027 5.396 11.8194 6.68072 9.24992 9.25016C6.68047 11.8196 5.39575 14.9029 5.39575 18.5002C5.39575 22.0974 6.68047 25.1807 9.24992 27.7502C11.8194 30.3196 14.9027 31.6043 18.4999 31.6043Z" fill="#17B111"/>
</svg>
