<svg width="90" height="110" viewBox="0 0 90 110" fill="none" xmlns="http://www.w3.org/2000/svg">
<path d="M45 75.2125C46.3125 75.2125 47.4375 74.7542 48.375 73.8375C49.3125 72.9208 49.7813 71.8208 49.7813 70.5375C49.7813 69.2542 49.3125 68.1542 48.375 67.2375C47.4375 66.3208 46.3125 65.8625 45 65.8625C43.6875 65.8625 42.5625 66.3208 41.625 67.2375C40.6875 68.1542 40.2187 69.2542 40.2187 70.5375C40.2187 71.8208 40.6875 72.9208 41.625 73.8375C42.5625 74.7542 43.6875 75.2125 45 75.2125ZM40.7812 56.7875H49.2188V28.325H40.7812V56.7875ZM45 110C31.875 106.792 21.0938 99.3438 12.6562 87.6562C4.21875 75.9688 0 63.1583 0 49.225V16.5L45 0L90 16.5V49.225C90 63.1583 85.7812 75.9688 77.3438 87.6562C68.9062 99.3438 58.125 106.792 45 110ZM45 101.475C55.7812 97.9917 64.5703 91.4146 71.3672 81.7437C78.1641 72.0729 81.5625 61.2333 81.5625 49.225V22.275L45 8.8L8.4375 22.275V49.225C8.4375 61.2333 11.8359 72.0729 18.6328 81.7437C25.4297 91.4146 34.2188 97.9917 45 101.475Z" fill="#FF0000"/>
</svg>
