<svg width="37" height="37" viewBox="0 0 37 37" fill="none" xmlns="http://www.w3.org/2000/svg">
<path d="M30.6406 32.375C27.5059 32.375 24.3905 31.6042 21.2943 30.0625C18.1981 28.5208 15.4167 26.5167 12.95 24.05C10.4833 21.5833 8.47917 18.8019 6.9375 15.7057C5.39583 12.6095 4.625 9.4941 4.625 6.35938C4.625 5.87118 4.79201 5.46007 5.12604 5.12604C5.46007 4.79201 5.87118 4.625 6.35938 4.625H11.7552C12.1149 4.625 12.4297 4.74705 12.6995 4.99115C12.9693 5.23524 13.1427 5.56285 13.2198 5.97396L14.2604 10.8302C14.3118 11.1899 14.3054 11.5175 14.2411 11.813C14.1769 12.1085 14.042 12.359 13.8365 12.5646L9.98229 16.4573C11.4212 18.8469 13.0335 20.9281 14.8193 22.701C16.605 24.474 18.6285 25.9771 20.8896 27.2104L24.551 23.4333C24.808 23.1507 25.1035 22.9516 25.4375 22.8359C25.7715 22.7203 26.1056 22.701 26.4396 22.7781L31.026 23.7802C31.4115 23.8573 31.7326 24.05 31.9896 24.3583C32.2465 24.6667 32.375 25.0264 32.375 25.4375V30.6406C32.375 31.1288 32.208 31.5399 31.874 31.874C31.5399 32.208 31.1288 32.375 30.6406 32.375ZM8.82604 14.3375L11.9479 11.1771L11.0615 6.9375H6.9375C6.9375 7.93958 7.09167 9.03802 7.4 10.2328C7.70833 11.4276 8.18368 12.7958 8.82604 14.3375ZM30.0625 30.0625V25.9385L26.0927 25.1292L23.0479 28.3281C24.1014 28.8163 25.2448 29.2146 26.4781 29.5229C27.7115 29.8312 28.9062 30.0111 30.0625 30.0625Z" fill="#17B111"/>
</svg>
