<svg width="53" height="56" viewBox="0 0 53 56" fill="none" xmlns="http://www.w3.org/2000/svg">
<path d="M24.1813 30.2748L34.7813 19.0748L32.4073 16.5665L24.1813 25.2582L20.5927 21.4665L18.2188 23.9748L24.1813 30.2748ZM26.5 46.7248C31.3952 42.0193 35.0113 37.7512 37.3485 33.9207C39.6856 30.0901 40.8542 26.7165 40.8542 23.7998C40.8542 19.2109 39.4648 15.4582 36.686 12.5415C33.9072 9.62484 30.5118 8.1665 26.5 8.1665C22.4882 8.1665 19.0929 9.62484 16.3141 12.5415C13.5353 15.4582 12.1459 19.2109 12.1459 23.7998C12.1459 26.7165 13.3421 30.0901 15.7344 33.9207C18.1268 37.7512 21.7153 42.0193 26.5 46.7248ZM26.5 51.3332C20.5743 46.0054 16.1485 41.0568 13.2224 36.4873C10.2964 31.9179 8.83337 27.6887 8.83337 23.7998C8.83337 17.9665 10.6092 13.3193 14.161 9.85817C17.7127 6.39706 21.8257 4.6665 26.5 4.6665C31.1743 4.6665 35.2874 6.39706 38.8391 9.85817C42.3908 13.3193 44.1667 17.9665 44.1667 23.7998C44.1667 27.6887 42.7037 31.9179 39.7776 36.4873C36.8516 41.0568 32.4257 46.0054 26.5 51.3332Z" fill="#17B111"/>
</svg>
