<svg width="20" height="20" viewBox="0 0 20 20" fill="none" xmlns="http://www.w3.org/2000/svg">
<path d="M1.5 20C1.1 20 0.75 19.8125 0.45 19.4375C0.15 19.0625 0 18.625 0 18.125V1.875C0 1.375 0.15 0.9375 0.45 0.5625C0.75 0.1875 1.1 0 1.5 0H18.5C18.9 0 19.25 0.1875 19.55 0.5625C19.85 0.9375 20 1.375 20 1.875V18.125C20 18.625 19.85 19.0625 19.55 19.4375C19.25 19.8125 18.9 20 18.5 20H1.5ZM10 10.5625L1.5 3.59375V18.125H18.5V3.59375L10 10.5625ZM10 8.6875L18.4 1.875H1.625L10 8.6875Z" fill="#17B111"/>
</svg>
