<svg width="40" height="40" viewBox="0 0 40 40" fill="none" xmlns="http://www.w3.org/2000/svg">
<rect width="40" height="40" fill="#17B111"/>
<rect width="40" height="40" fill="white"/>
<path d="M39.5312 19.7421C39.5234 23.125 38.789 26.1093 37.3046 28.8828C35.9062 31.5 33.9765 33.6796 31.5468 35.3984C29.414 36.9062 27.078 37.9375 24.5234 38.4687C21.6952 39.0546 18.8671 38.9921 16.0624 38.3203C14.578 37.9609 13.1562 37.414 11.8202 36.6875C11.5937 36.5625 11.3984 36.5546 11.1562 36.6328C8.21086 37.5781 5.26555 38.5156 2.32023 39.4531C1.98429 39.5625 1.65617 39.664 1.32023 39.789C1.08586 39.875 1.07023 39.789 1.13273 39.5937C1.47648 38.5859 1.81242 37.5781 2.15617 36.5625C2.89054 34.3671 3.62492 32.1718 4.37492 29.9843C4.47648 29.6953 4.32805 29.5078 4.21086 29.3046C3.28898 27.7031 2.63273 26 2.22648 24.2031C1.34367 20.3281 1.65617 16.5312 3.14054 12.8515C3.99992 10.7265 5.22648 8.82027 6.79679 7.13277C8.79679 4.97652 11.164 3.39059 13.8984 2.32809C16.453 1.3359 19.0937 0.953088 21.8124 1.11715C25.539 1.34371 28.9296 2.57809 31.9062 4.82809C35.7577 7.73434 38.1796 11.5546 39.1484 16.2968C39.4062 17.5078 39.4999 18.7343 39.5312 19.7421ZM20.5077 4.28121C19.7812 4.24996 18.9296 4.3359 18.078 4.4609C17.7421 4.50777 17.414 4.57809 17.0859 4.66402C12.0077 5.95309 8.35929 8.98434 6.21086 13.7578C4.96867 16.5156 4.63273 19.4296 5.10148 22.414C5.46867 24.7734 6.34367 26.9453 7.71086 28.9062C7.85929 29.125 7.88273 29.3125 7.7968 29.5546C7.21867 31.25 6.65617 32.9531 6.08586 34.6562C6.05461 34.75 5.96086 34.8593 6.0468 34.9453C6.13273 35.039 6.24211 34.9375 6.33586 34.9062C8.04679 34.3593 9.75773 33.8203 11.453 33.25C11.8437 33.1171 12.1249 33.1796 12.4609 33.3828C16.2968 35.6875 20.3984 36.2968 24.7187 35.1484C27.9999 34.2812 30.703 32.4921 32.8437 29.8515C34.914 27.2968 36.0702 24.375 36.3046 21.1093C36.4843 18.6015 36.0937 16.164 35.0937 13.8359C33.8359 10.9062 31.8749 8.56246 29.2265 6.82027C26.6327 5.11715 23.7655 4.24215 20.5077 4.28121Z" fill="#17B111"/>
<path d="M11.1797 15.4374C11.2109 13.6796 11.8984 12.2343 13.2422 11.1093C13.625 10.789 14.0859 10.6562 14.5937 10.7421C14.8125 10.7734 15.0391 10.8046 15.25 10.7812C15.7812 10.7421 16.0859 11.039 16.25 11.4765C16.75 12.789 17.2344 14.1093 17.7266 15.4218C17.8203 15.6718 17.7969 15.8984 17.6797 16.1327C17.375 16.7656 16.8906 17.2577 16.4062 17.7499C15.9844 18.1796 15.9609 18.3202 16.25 18.8437C17.6484 21.3749 19.5781 23.3437 22.25 24.539C22.3828 24.5937 22.5 24.6874 22.625 24.7421C22.9609 24.9062 23.2656 24.8906 23.5469 24.6015C24.0937 24.0468 24.6016 23.4531 25.0938 22.8437C25.4766 22.3671 25.6562 22.2968 26.1953 22.539C27.5078 23.1484 28.7578 23.8593 30.0312 24.5468C30.4531 24.7734 30.5 25.0859 30.4375 25.6562C30.1797 27.9765 28.4063 29.0312 26.3828 29.3671C25.7031 29.4765 25.0625 29.414 24.4219 29.2109C22.5469 28.6171 20.7031 27.9296 19.0469 26.8515C17.5 25.8437 16.1719 24.5859 15.0078 23.1562C13.875 21.7577 12.8672 20.2812 12.0312 18.6796C11.5625 17.7656 11.1797 16.3437 11.1797 15.4374Z" fill="#17B111"/>
</svg>
