<svg width="46" height="46" viewBox="0 0 46 46" fill="none" xmlns="http://www.w3.org/2000/svg">
<rect width="46" height="46" fill="white"/>
<path d="M43.1366 33.12C42.7159 35.2666 40.9286 36.9025 38.7206 37.2092C35.2505 37.72 29.4669 38.3333 22.9474 38.3333C16.5332 38.3333 10.7497 37.72 7.17416 37.2092C4.96617 36.9025 3.17791 35.2666 2.75816 33.12C2.33746 30.7692 1.91675 27.2933 1.91675 23C1.91675 18.7066 2.33746 15.2308 2.75816 12.88C3.17887 10.7333 4.96617 9.09742 7.17416 8.79075C10.6443 8.27996 16.4278 7.66663 22.9474 7.66663C29.4669 7.66663 35.145 8.27996 38.7206 8.79075C40.9286 9.09742 42.7168 10.7333 43.1366 12.88C43.5573 15.2308 44.0834 18.7066 44.0834 23C43.978 27.2933 43.5573 30.7692 43.1366 33.12Z" fill="#17B111"/>
<path opacity="0.05" d="M31.004 21.505L20.0445 14.1986C19.4915 13.8297 18.7852 13.7952 18.1997 14.1095C17.6142 14.4229 17.25 15.0295 17.25 15.6936V30.3063C17.25 30.9704 17.6142 31.578 18.1997 31.8914C18.4661 32.0342 18.7565 32.1041 19.0469 32.1041C19.3957 32.1041 19.7426 32.0026 20.0435 31.8023L31.003 24.4959C31.5043 24.1615 31.8033 23.6028 31.8033 23.0009C31.8042 22.3981 31.5043 21.8394 31.004 21.505Z" fill="black"/>
<path opacity="0.07" d="M19.8194 14.6021L30.1598 21.4963C30.8201 21.9707 31.2647 22.3953 31.2647 22.9463C31.2647 23.4973 31.0501 23.8816 30.5795 24.2247C30.224 24.4835 19.9947 31.2819 19.9947 31.2819C19.1313 31.8607 17.7292 31.738 17.7292 29.8453V16.0463C17.7292 14.1248 19.2472 14.2207 19.8194 14.6021Z" fill="black"/>
<path d="M18.2083 30.2527V15.7483C18.2083 15.0363 19.0018 14.6108 19.595 15.0066L30.474 22.2592C31.0039 22.6119 31.0039 23.3901 30.474 23.7437L19.595 30.9964C19.0018 31.3902 18.2083 30.9657 18.2083 30.2527Z" fill="white"/>
</svg>
